<svg xmlns="http://www.w3.org/2000/svg" version="1.1" xmlns:xlink="http://www.w3.org/1999/xlink" xmlns:svgjs="http://svgjs.dev/svgjs" width="100%" height="100%" viewBox="0 0 1000 600"><rect width="1000" height="600" x="0" y="0" fill="#e2d1f9"/><g><rect width="333.3333333333333" height="333.3333333333333" rx="13.333333333333334" ry="13.333333333333334" y="262.71455442470864" fill="#317773" transform="matrix(0.5197671013062507,0,0,0.5197671013062507,0,76.82176671928828)" x="240.4925079345703"/><path d="M407.05674810424296 504.38122511105047L407.05674810424296 504.38122511105047Q403.0477741142131 504.38122511105047 400.7360299885754 501.9816932338063Q398.4242858629378 499.55289877269337 398.4242858629378 495.33908669558167L398.4242858629378 495.33908669558167L398.4242858629378 369.33440055639556L351.01889999543164 369.33440055639556Q347.2147640924836 369.33440055639556 345.10785805392777 367.2274945178397Q343.0009520153719 365.12058847928387 343.0009520153719 361.7553913343683L343.0009520153719 361.7553913343683Q343.0009520153719 358.1853561023709 345.10785805392777 356.2832881508969Q347.2147640924836 354.3812201994229 351.01889999543164 354.3812201994229L351.01889999543164 354.3812201994229L463.3286968840049 354.3812201994229Q467.1035702030841 354.3812201994229 469.21047624163987 356.2832881508969Q471.3173822801957 358.1853561023709 471.3173822801957 361.7553913343683L471.3173822801957 361.7553913343683Q471.3173822801957 365.3254265663657 469.21047624163987 367.3445448533151Q467.1035702030841 369.33440055639556 463.3286968840049 369.33440055639556L463.3286968840049 369.33440055639556L415.9233110164987 369.33440055639556L415.9233110164987 495.33908669558167Q415.9233110164987 499.55289877269337 413.6993546424676 501.9816932338063Q411.4753982684364 504.38122511105047 407.05674810424296 504.38122511105047Z " fill="#e2d1f9" transform="matrix(0.5197671013062507,0,0,0.5197671013062507,0,76.82176671928828)"/><path d="M720.2306247477459 503.9490232885103L720.2306247477459 503.9490232885103Q716.2832564308209 503.9490232885103 714.0070367444189 501.5863648798399Q711.7308170580169 499.19489356374663 711.7308170580169 495.0458348948619L711.7308170580169 495.0458348948619L711.7308170580169 370.9774555322418L665.0539070330645 370.9774555322418Q661.3082290680993 370.9774555322418 659.233699733657 368.90292619779945Q657.1591703992146 366.8283968633571 657.1591703992146 363.5149125097339L657.1591703992146 363.5149125097339Q657.1591703992146 359.9997378041511 659.233699733657 358.1268988216685Q661.3082290680993 356.2540598391858 665.0539070330645 356.2540598391858L665.0539070330645 356.2540598391858L775.6378457218096 356.2540598391858Q779.3547107793521 356.2540598391858 781.4292401137944 358.1268988216685Q783.5037694482368 359.9997378041511 783.5037694482368 363.5149125097339L783.5037694482368 363.5149125097339Q783.5037694482368 367.03008721531677 781.4292401137944 369.01817782749066Q779.3547107793521 370.9774555322418 775.6378457218096 370.9774555322418L775.6378457218096 370.9774555322418L728.9609356968573 370.9774555322418L728.9609356968573 495.0458348948619Q728.9609356968573 499.19489356374663 726.7711547327237 501.5863648798399Q724.5813737685902 503.9490232885103 720.2306247477459 503.9490232885103ZM791.1968157301271 503.9490232885103L791.1968157301271 503.9490232885103Q787.0477570612425 503.9490232885103 784.8579760971089 501.67280360210833Q782.6681951329754 499.3965839157063 782.6681951329754 495.2475252468216L782.6681951329754 495.2475252468216L782.6681951329754 408.7511771635458Q782.6681951329754 404.6021184946611 784.7427244674177 402.4123375305275Q786.8172538018599 400.22255656639396 790.7646221187849 400.22255656639396L790.7646221187849 400.22255656639396Q794.7119904357099 400.22255656639396 796.9017713998435 402.4123375305275Q799.0627394565543 404.6021184946611 799.0627394565543 408.7511771635458L799.0627394565543 408.7511771635458L799.0627394565543 425.549102191044L796.9882101221119 425.549102191044Q800.3016944757351 413.30361653634975 809.6370764807256 406.67664782910344Q818.972458485716 400.0208662144343 832.6874024189736 399.61748551051494L832.6874024189736 399.61748551051494Q835.7991964206371 399.4157951585553 837.6432224956969 400.97169215938703Q839.5160614781796 402.5275891602188 839.7177518301393 406.2444542177613L839.7177518301393 406.2444542177613Q839.9482550895217 409.78844183076694 838.0754161070391 411.8629711652093Q836.2025771245565 413.9375004996516 832.2552088076314 414.3408812035709L832.2552088076314 414.3408812035709L828.9417244540083 414.7442619074903Q814.8233998168314 416.0120298340939 807.2744180720551 423.7915148382526Q799.6966234198561 431.57099984241137 799.6966234198561 445.05544051628647L799.6966234198561 445.05544051628647L799.6966234198561 495.2475252468216Q799.6966234198561 499.3965839157063 797.5068424557224 501.67280360210833Q795.3458743990118 503.9490232885103 791.1968157301271 503.9490232885103ZM887.6624297816953 504.3812168998524L887.6624297816953 504.3812168998524Q877.2897831094837 504.3812168998524 869.0781044939828 500.3185969532362Q860.8952387859047 496.28478991404285 856.1122961537183 489.22562759545434Q851.3581664289546 482.16646527686584 851.3581664289546 473.4649672351772L851.3581664289546 473.4649672351772Q851.3581664289546 462.2567462477041 857.063122098671 455.83146789241744Q862.7680777683873 449.4061895371308 875.9355764606115 446.69777623938666Q889.1030751528358 444.0181758490653 911.9228978317013 444.0181758490653L911.9228978317013 444.0181758490653L921.2582798366918 444.0181758490653L921.2582798366918 454.995893577156L912.124588183661 454.995893577156Q895.3266631561627 454.995893577156 885.6743391695214 456.5517905779877Q876.02201518288 458.1076875788195 872.1898984956462 461.8533655437847Q868.3577818084125 465.57023060132724 868.3577818084125 472.42770256795603L868.3577818084125 472.42770256795603Q868.3577818084125 480.927510257685 874.2644278300885 486.3155239457505Q880.1710738517646 491.7323505412388 890.3420301720166 491.7323505412388L890.3420301720166 491.7323505412388Q898.640147509786 491.7323505412388 904.9789871428042 487.78498222431386Q911.2890138683996 483.83761390738886 914.9194402036736 476.98014194076006Q918.5498665389476 470.15148288155405 918.5498665389476 461.2194815804829L918.5498665389476 461.2194815804829L918.5498665389476 437.5640845863558Q918.5498665389476 424.7135278757825 913.3635432028419 419.00857220606616Q908.1772198667361 413.30361653634975 896.363927823384 413.30361653634975L896.363927823384 413.30361653634975Q889.1030751528358 413.30361653634975 881.8422224822876 415.1764555188324Q874.5813698117395 417.04929450131505 866.4849428259298 421.1983531701997L866.4849428259298 421.1983531701997Q863.574839176226 422.63899854134024 861.5003098417837 422.12036620772966Q859.4257805073414 421.6017338741191 858.1868254881606 419.93058524359606Q856.9478704689798 418.28824952049587 856.7461801170201 416.0984685563623Q856.5444897650603 413.9375004996516 857.66819315455 411.8629711652093Q858.8207094514623 409.78844183076694 861.2986194898241 408.5206739041633L861.2986194898241 408.5206739041633Q870.4323111428548 403.96823453135926 879.364312443926 401.8937051969169Q888.2675008375743 399.81917586247465 896.363927823384 399.81917586247465L896.363927823384 399.81917586247465Q909.4449877933397 399.81917586247465 917.9447954830687 404.08348616105053Q926.4446031727977 408.31898355220363 930.5936618416823 416.93404287162383Q934.742720510567 425.549102191044 934.742720510567 439.0335428649192L934.742720510567 439.0335428649192L934.742720510567 495.2475252468216Q934.742720510567 499.3965839157063 932.7834428058158 501.67280360210833Q930.795352193642 503.9490232885103 927.0784871360994 503.9490232885103L927.0784871360994 503.9490232885103Q923.1311188191745 503.9490232885103 921.0565894847322 501.67280360210833Q918.9820601502898 499.3965839157063 918.9820601502898 495.2475252468216L918.9820601502898 495.2475252468216L918.9820601502898 479.05467127520234L920.8548991327725 479.05467127520234Q919.1837505022495 486.94940790905235 914.5160594997543 492.5391119490775Q909.848368497259 498.15762889652547 902.9908965306303 501.2694228981889Q896.1622374714243 504.3812168998524 887.6624297816953 504.3812168998524ZM1002.3666142319022 503.9490232885103L1002.3666142319022 503.9490232885103Q998.8514395263195 503.9490232885103 996.1430262285752 501.9897455837592Q993.4634258382539 500.0304678790081 991.5905868557712 495.8814092101234L991.5905868557712 495.8814092101234L955.6897042069498 412.06466151716893Q954.2490588358094 408.95286751550543 954.6524395397288 406.2444542177613Q955.0846331510709 403.56485382743995 957.1591624855132 401.8937051969169Q959.2336918199555 400.22255656639396 962.950556877498 400.22255656639396L962.950556877498 400.22255656639396Q966.2640412311212 400.22255656639396 968.1368802136038 401.69201484495727Q970.0097191960865 403.1326602160978 971.450364567227 406.8783381810631L971.450364567227 406.8783381810631L1005.4784082335657 490.06120191071585L999.8887041935405 490.06120191071585L1034.521818915758 406.8783381810631Q1035.9912771943216 403.1326602160978 1037.8353032693813 401.69201484495727Q1039.708142251864 400.22255656639396 1043.2521298648699 400.22255656639396L1043.2521298648699 400.22255656639396Q1046.565614218493 400.22255656639396 1048.3232015712842 401.8937051969169Q1050.0807889240757 403.56485382743995 1050.3977309057268 406.15801549549286Q1050.7146728873777 408.7511771635458 1049.4757178681966 411.8629711652093L1049.4757178681966 411.8629711652093L1013.171454515456 495.8814092101234Q1011.7019962368927 500.0304678790081 1008.90714421688 501.9897455837592Q1006.1122921968675 503.9490232885103 1002.3666142319022 503.9490232885103ZM1115.6301533109686 504.3812168998524L1115.6301533109686 504.3812168998524Q1099.667802598732 504.3812168998524 1088.1426396296079 498.0423772668342Q1076.6462895679065 491.7323505412388 1070.3074499348884 480.0919359424235Q1063.9974232092932 468.4803342510311 1063.9974232092932 452.3162931868346L1063.9974232092932 452.3162931868346Q1063.9974232092932 436.52681991913465 1070.22101121262 424.8287795054738Q1076.444599215947 413.1019261843901 1087.3358782217692 406.44614456972096Q1098.2271572275913 399.81917586247465 1112.5183593093052 399.81917586247465L1112.5183593093052 399.81917586247465Q1122.689315629557 399.81917586247465 1130.7857426153669 403.247911845789Q1138.8821696011764 406.67664782910344 1144.5871252708928 413.1019261843901Q1150.2920809406091 419.52720453967675 1153.2886233125814 428.6608961927075Q1156.3139785919766 437.7945878457383 1156.3139785919766 449.20449918517113L1156.3139785919766 449.20449918517113Q1156.3139785919766 452.5179835387943 1154.4411396094938 454.07388053962603Q1152.568300627011 455.6297775404578 1149.0531259214285 455.6297775404578L1149.0531259214285 455.6297775404578L1076.8479799198662 455.6297775404578L1076.8479799198662 444.6232469049443L1145.1057576045032 444.6232469049443L1141.79227325088 447.33166020268845Q1141.79227325088 436.12343921521534 1138.449975989834 428.34395421105665Q1135.136491636211 420.5644692068979 1128.8264649106156 416.41541053801325Q1122.4876252775975 412.2663518691286 1112.9505529206472 412.2663518691286L1112.9505529206472 412.2663518691286Q1102.376215896476 412.2663518691286 1095.0001115962368 417.1357332235835Q1087.6240072959972 422.0051145780384 1083.9071422384548 430.62017389745864Q1080.1614642734894 439.23523321687884 1080.1614642734894 450.6451445563116L1080.1614642734894 450.6451445563116L1080.1614642734894 451.8840995754925Q1080.1614642734894 470.98705719681556 1089.4104075562113 480.927510257685Q1098.6305379315108 490.8967762259773 1115.6301533109686 490.8967762259773L1115.6301533109686 490.8967762259773Q1122.689315629557 490.8967762259773 1129.6332263184545 489.0239372434947Q1136.6059499147746 487.151098261012 1143.2329186220209 482.8003492401677L1143.2329186220209 482.8003492401677Q1146.1430222717245 480.927510257685 1148.534493587818 481.0427618873763Q1150.897151996488 481.12920060964467 1152.3666102750517 482.48340725851676Q1153.807255646192 483.83761390738886 1154.3258879798027 485.79689161214Q1154.8445203134133 487.78498222431386 1153.9225072758832 490.06120191071585Q1152.9716813309306 492.33742159711784 1150.2920809406091 494.0085702276408L1150.2920809406091 494.0085702276408Q1143.4346089739806 498.9932032117869 1134.09922696899 501.67280360210833Q1124.7638449639994 504.3812168998524 1115.6301533109686 504.3812168998524ZM1211.289005954698 504.3812168998524L1211.289005954698 504.3812168998524Q1196.3351070022597 504.3812168998524 1188.4691832758326 495.2475252468216Q1180.5744466419826 486.11383359379084 1180.5744466419826 469.1142182143329L1180.5744466419826 469.1142182143329L1180.5744466419826 363.31322215777425Q1180.5744466419826 359.1641634888896 1182.648975976425 356.97438252475604Q1184.7235053108673 354.81341446804527 1188.872563979752 354.81341446804527L1188.872563979752 354.81341446804527Q1192.819932296677 354.81341446804527 1195.096151983079 356.97438252475604Q1197.3723716694808 359.1641634888896 1197.3723716694808 363.31322215777425L1197.3723716694808 363.31322215777425L1197.3723716694808 467.87526319515206Q1197.3723716694808 479.05467127520234 1201.8383723200163 484.55793659295904Q1206.3043729705519 490.06120191071585 1215.0058710122407 490.06120191071585L1215.0058710122407 490.06120191071585Q1216.8787099947233 490.06120191071585 1218.3193553658639 489.85951155875614Q1219.7888136444271 489.6578212067965 1221.2294590155675 489.6578212067965L1221.2294590155675 489.6578212067965Q1223.5056787019696 489.427317947414 1224.4565046469224 490.69508587401765Q1225.3785176844522 491.93404089319847 1225.3785176844522 495.650905950741L1225.3785176844522 495.650905950741Q1225.3785176844522 499.3965839157063 1223.736181961352 501.2694228981889Q1222.065033330829 503.1422618806716 1218.3193553658639 503.7473329365506L1218.3193553658639 503.7473329365506Q1216.6770196427638 503.9490232885103 1214.804180660281 504.17952654789275Q1212.9313416777982 504.3812168998524 1211.289005954698 504.3812168998524ZM1291.561766034647 504.3812168998524L1291.561766034647 504.3812168998524Q1281.8230033257373 504.3812168998524 1272.4876213207467 502.71006826932944Q1263.1522393157563 501.06773254622925 1255.1422510522152 497.95593854456575Q1247.1610756960968 494.8441445429023 1240.73579734081 490.06120191071585L1240.73579734081 490.06120191071585Q1238.2578873024484 488.1883629282332 1237.3070613574955 485.79689161214Q1236.3850483199658 483.43423320346955 1236.9036806535764 481.0427618873763Q1237.4223129871868 478.651290571283 1238.9782099880185 476.98014194076006Q1240.5341069888505 475.3378062176599 1242.8103266752523 475.1361158657002Q1245.0865463616544 474.90561260631773 1247.7949596593985 476.5767612368407L1247.7949596593985 476.5767612368407Q1257.130341664389 483.203729944087 1267.7046786885603 486.22908522348206Q1278.2790157127315 489.22562759545434 1291.561766034647 489.22562759545434L1291.561766034647 489.22562759545434Q1310.2325300446278 489.22562759545434 1319.2509700679675 482.2817169065571Q1328.2694100913068 475.3378062176599 1328.2694100913068 463.92789487822705L1328.2694100913068 463.92789487822705Q1328.2694100913068 454.5925128732366 1321.757693013752 449.29093790743957Q1315.217163028774 444.0181758490653 1299.8598833724163 440.9063818474018L1299.8598833724163 440.9063818474018L1278.2790157127315 436.52681991913465Q1258.7726773874892 432.37776125025005 1249.1491663082707 422.9559405229911Q1239.4968423216292 413.5053068883094 1239.4968423216292 397.7446465280323L1239.4968423216292 397.7446465280323Q1239.4968423216292 388.0058838191225 1243.444210638554 379.9958955555813Q1247.3627660480565 372.0147201994629 1254.4219283666448 366.3097645297465Q1261.4810906852333 360.6048088600301 1271.2198533941432 357.4930148583666Q1280.9874290104758 354.3812208567031 1292.8007210538276 354.3812208567031L1292.8007210538276 354.3812208567031Q1305.8817810237838 354.3812208567031 1317.176440733525 358.0116471919772Q1328.4999133506894 361.6420735272513 1337.6047920962974 368.90292619779945L1337.6047920962974 368.90292619779945Q1339.9098246901222 370.77576518028206 1340.7165860979612 373.1672364963753Q1341.5521604132223 375.5587078124685 1340.9470893573434 377.7196758691793Q1340.3132053940417 379.90945683331284 1338.7573083932098 381.3501022044534Q1337.2014113923783 382.8195604830167 1334.8099400762849 383.02125083497634Q1332.4184687601914 383.222941186936 1329.5371780179107 381.3501022044534L1329.5371780179107 381.3501022044534Q1321.2390606801414 375.1265142011264 1312.3070593790703 372.3316621811138Q1303.3750580779993 369.53681016110124 1292.5990307018683 369.53681016110124L1292.5990307018683 369.53681016110124Q1281.5925000663547 369.53681016110124 1273.6113247102362 372.8502945147244Q1265.6301493541177 376.16377886834755 1261.1641487035822 382.50261850136576Q1256.698148053047 388.8126452269612 1256.698148053047 397.11076256473046L1256.698148053047 397.11076256473046Q1256.698148053047 407.0800285330228 1262.8352973341055 412.9002358324304Q1268.943633707741 418.69163022441523 1282.8602679929581 421.40004352215936L1282.8602679929581 421.40004352215936L1304.41232274522 425.9524828949634Q1325.388119349026 430.3032319158077 1335.4438240395866 439.1199815871876Q1345.4995287301476 447.9367312585675 1345.4995287301476 463.0923205629656L1345.4995287301476 463.0923205629656Q1345.4995287301476 472.2260122159964 1341.753850765182 479.89024559046385Q1338.0369857076398 487.58329187235415 1330.977823389051 493.0577442826881Q1323.9186610704628 498.56100960044483 1313.9782080095933 501.4711132501486Q1304.008942041301 504.3812168998524 1291.561766034647 504.3812168998524ZM1409.6082477459 504.3812168998524L1409.6082477459 504.3812168998524Q1397.7661427951252 504.3812168998524 1389.7849674390068 500.1169066012765Q1381.8037920828883 495.8814092101234 1377.856423765963 487.6697305946226Q1373.909055449038 479.48686488654454 1373.909055449038 467.64475993576957L1373.909055449038 467.64475993576957L1373.909055449038 414.7442619074903L1360.0212340712437 414.7442619074903Q1356.5060593656608 414.7442619074903 1354.6332203831785 412.9866745546988Q1352.7603814006957 411.2290872019074 1352.7603814006957 408.117293200244L1352.7603814006957 408.117293200244Q1352.7603814006957 405.0054991985804 1354.6332203831785 403.33435056805746Q1356.5060593656608 401.69201484495727 1360.0212340712437 401.69201484495727L1360.0212340712437 401.69201484495727L1373.909055449038 401.69201484495727L1373.909055449038 377.8349274988705Q1373.909055449038 373.68586882998585 1376.2140880428628 371.4960878658523Q1378.4903077292652 369.33511980914153 1382.43767604619 369.33511980914153L1382.43767604619 369.33511980914153Q1386.356231455692 369.33511980914153 1388.5460124198257 371.4960878658523Q1390.7357933839594 373.68586882998585 1390.7357933839594 377.8349274988705L1390.7357933839594 377.8349274988705L1390.7357933839594 401.69201484495727L1416.869100416448 401.69201484495727Q1420.3842751220309 401.69201484495727 1422.2571141045137 403.33435056805746Q1424.1299530869965 405.0054991985804 1424.1299530869965 408.117293200244L1424.1299530869965 408.117293200244Q1424.1299530869965 411.2290872019074 1422.2571141045137 412.9866745546988Q1420.3842751220309 414.7442619074903 1416.869100416448 414.7442619074903L1416.869100416448 414.7442619074903L1390.7357933839594 414.7442619074903L1390.7357933839594 466.0024242126694Q1390.7357933839594 477.8157162560215 1395.6916134606827 483.9528655370801Q1400.6762464448288 490.06120191071585 1411.8844674323018 490.06120191071585L1411.8844674323018 490.06120191071585Q1415.8318357492267 490.06120191071585 1418.6266877692397 489.22562759545434Q1421.4215397892517 488.39005328019283 1423.2943787717345 488.39005328019283L1423.2943787717345 488.39005328019283Q1425.1672177542173 488.1883629282332 1426.4061727733983 489.6578212067965Q1427.645127792579 491.098466577937 1427.645127792579 494.6136412835198L1427.645127792579 494.6136412835198Q1427.645127792579 497.1203642293043 1426.7231147550492 499.19489356374663Q1425.7722888100961 501.2694228981889 1423.4960691236943 502.1049972134504L1423.4960691236943 502.1049972134504Q1421.0181590853326 502.91175862128915 1416.9555391387166 503.6608942142822Q1412.921732099523 504.3812168998524 1409.6082477459 504.3812168998524ZM1450.263260119485 503.9490232885103L1450.263260119485 503.9490232885103Q1446.1142014506004 503.9490232885103 1443.9244204864667 501.67280360210833Q1441.763452429756 499.3965839157063 1441.763452429756 495.2475252468216L1441.763452429756 495.2475252468216L1441.763452429756 408.7511771635458Q1441.763452429756 404.6021184946611 1443.8379817641985 402.4123375305275Q1445.9125110986406 400.22255656639396 1449.8598794155655 400.22255656639396L1449.8598794155655 400.22255656639396Q1453.7784348250675 400.22255656639396 1455.9682157892012 402.4123375305275Q1458.1579967533348 404.6021184946611 1458.1579967533348 408.7511771635458L1458.1579967533348 408.7511771635458L1458.1579967533348 425.549102191044L1456.0834674188927 425.549102191044Q1459.3969517725159 413.30361653634975 1468.732333777506 406.67664782910344Q1478.0677157824966 400.0208662144343 1491.7538468083317 399.61748551051494L1491.7538468083317 399.61748551051494Q1494.865640809995 399.4157951585553 1496.7384797924774 400.97169215938703Q1498.6113187749602 402.5275891602188 1498.81300912692 406.2444542177613L1498.81300912692 406.2444542177613Q1499.0146994788797 409.78844183076694 1497.141860496397 411.8629711652093Q1495.2690215139146 413.9375004996516 1491.3504661044121 414.3408812035709L1491.3504661044121 414.3408812035709L1488.008168843366 414.7442619074903Q1473.918657113612 416.0120298340939 1466.340862461413 423.7915148382526Q1458.7630678092141 431.57099984241137 1458.7630678092141 445.05544051628647L1458.7630678092141 445.05544051628647L1458.7630678092141 495.2475252468216Q1458.7630678092141 499.3965839157063 1456.602099752503 501.67280360210833Q1454.4123187883697 503.9490232885103 1450.263260119485 503.9490232885103ZM1546.7288741710531 504.3812168998524L1546.7288741710531 504.3812168998524Q1536.3562274988417 504.3812168998524 1528.1733617907635 500.3185969532362Q1519.9616831752624 496.28478991404285 1515.2075534504988 489.22562759545434Q1510.4246108183124 482.16646527686584 1510.4246108183124 473.4649672351772L1510.4246108183124 473.4649672351772Q1510.4246108183124 462.2567462477041 1516.1295664880286 455.83146789241744Q1521.8345221577451 449.4061895371308 1535.0020208499695 446.69777623938666Q1548.1695195421935 444.0181758490653 1570.9893422210594 444.0181758490653L1570.9893422210594 444.0181758490653L1580.3247242260495 444.0181758490653L1580.3247242260495 454.995893577156L1571.2198454804416 454.995893577156Q1554.3931075455207 454.995893577156 1544.7695964663021 456.5517905779877Q1535.1172724796606 458.1076875788195 1531.2851557924268 461.8533655437847Q1527.4242261977702 465.57023060132724 1527.4242261977702 472.42770256795603L1527.4242261977702 472.42770256795603Q1527.4242261977702 480.927510257685 1533.3596851268694 486.3155239457505Q1539.2663311485453 491.7323505412388 1549.4372874687974 491.7323505412388L1549.4372874687974 491.7323505412388Q1557.7354048065663 491.7323505412388 1564.0454315321617 487.78498222431386Q1570.3842711651805 483.83761390738886 1574.0146975004545 476.98014194076006Q1577.6451238357286 470.15148288155405 1577.6451238357286 461.2194815804829L1577.6451238357286 461.2194815804829L1577.6451238357286 437.5640845863558Q1577.6451238357286 424.7135278757825 1572.4588004996226 419.00857220606616Q1567.2724771635167 413.30361653634975 1555.430372212742 413.30361653634975L1555.430372212742 413.30361653634975Q1548.1695195421935 413.30361653634975 1540.9086668716454 415.1764555188324Q1533.6478142010974 417.04929450131505 1525.5802001227107 421.1983531701997L1525.5802001227107 421.1983531701997Q1522.6700964730067 422.63899854134024 1520.595567138564 422.12036620772966Q1518.521037804122 421.6017338741191 1517.2820827849414 419.93058524359606Q1516.0143148583375 418.28824952049587 1515.8126245063781 416.0984685563623Q1515.6109341544184 413.9375004996516 1516.7634504513308 411.8629711652093Q1517.8871538408202 409.78844183076694 1520.3938767866048 408.5206739041633L1520.3938767866048 408.5206739041633Q1529.4987555322127 403.96823453135926 1538.4307568332838 401.8937051969169Q1547.3627581343549 399.81917586247465 1555.430372212742 399.81917586247465L1555.430372212742 399.81917586247465Q1568.5114321826973 399.81917586247465 1577.0112398724264 404.08348616105053Q1585.5110475621555 408.31898355220363 1589.6601062310401 416.93404287162383Q1593.8091648999248 425.549102191044 1593.8091648999248 439.0335428649192L1593.8091648999248 439.0335428649192L1593.8091648999248 495.2475252468216Q1593.8091648999248 499.3965839157063 1591.8498871951738 501.67280360210833Q1589.8906094904228 503.9490232885103 1586.1449315254572 503.9490232885103L1586.1449315254572 503.9490232885103Q1582.1975632085323 503.9490232885103 1580.1230338740902 501.67280360210833Q1578.0485045396476 499.3965839157063 1578.0485045396476 495.2475252468216L1578.0485045396476 495.2475252468216L1578.0485045396476 479.05467127520234L1579.9213435221304 479.05467127520234Q1578.2501948916074 486.94940790905235 1573.582503889112 492.5391119490775Q1568.9148128866168 498.15762889652547 1562.0861538274112 501.2694228981889Q1555.2286818607822 504.3812168998524 1546.7288741710531 504.3812168998524ZM1665.3804269381849 504.3812168998524L1665.3804269381849 504.3812168998524Q1653.567134894833 504.3812168998524 1645.5859595387146 500.1169066012765Q1637.6047841825962 495.8814092101234 1633.6574158656713 487.6697305946226Q1629.7100475487464 479.48686488654454 1629.7100475487464 467.64475993576957L1629.7100475487464 467.64475993576957L1629.7100475487464 414.7442619074903L1615.8222261709516 414.7442619074903Q1612.2782385579458 414.7442619074903 1610.4053995754634 412.9866745546988Q1608.5613735004035 411.2290872019074 1608.5613735004035 408.117293200244L1608.5613735004035 408.117293200244Q1608.5613735004035 405.0054991985804 1610.4053995754634 403.33435056805746Q1612.2782385579458 401.69201484495727 1615.8222261709516 401.69201484495727L1615.8222261709516 401.69201484495727L1629.7100475487464 401.69201484495727L1629.7100475487464 377.8349274988705Q1629.7100475487464 373.68586882998585 1631.9862672351483 371.4960878658523Q1634.2624869215501 369.33511980914153 1638.209855238475 369.33511980914153L1638.209855238475 369.33511980914153Q1642.1572235554 369.33511980914153 1644.3470045195336 371.4960878658523Q1646.5079725762444 373.68586882998585 1646.5079725762444 377.8349274988705L1646.5079725762444 377.8349274988705L1646.5079725762444 401.69201484495727L1672.6412796087334 401.69201484495727Q1676.1852672217387 401.69201484495727 1678.0581062042215 403.33435056805746Q1679.9021322792814 405.0054991985804 1679.9021322792814 408.117293200244L1679.9021322792814 408.117293200244Q1679.9021322792814 411.2290872019074 1678.0581062042215 412.9866745546988Q1676.1852672217387 414.7442619074903 1672.6412796087334 414.7442619074903L1672.6412796087334 414.7442619074903L1646.5079725762444 414.7442619074903L1646.5079725762444 466.0024242126694Q1646.5079725762444 477.8157162560215 1651.4926055603905 483.9528655370801Q1656.4772385445367 490.06120191071585 1667.6854595320096 490.06120191071585L1667.6854595320096 490.06120191071585Q1671.604014941512 490.06120191071585 1674.4276798689475 489.22562759545434Q1677.22253188896 488.39005328019283 1679.0953708714424 488.39005328019283L1679.0953708714424 488.39005328019283Q1680.9393969465027 488.1883629282332 1682.2071648731062 489.6578212067965Q1683.4461198922868 491.098466577937 1683.4461198922868 494.6136412835198L1683.4461198922868 494.6136412835198Q1683.4461198922868 497.1203642293043 1682.4952939473342 499.19489356374663Q1681.573280909804 501.2694228981889 1679.2970612234021 502.1049972134504L1679.2970612234021 502.1049972134504Q1676.790338277618 502.91175862128915 1672.7565312384245 503.6608942142822Q1668.722724199231 504.3812168998524 1665.3804269381849 504.3812168998524Z " fill="#317773" transform="matrix(0.5197671013062507,0,0,0.5197671013062507,0,76.82176671928828)"/></g></svg>